<?xml version="1.0" standalone="no"?>
<!DOCTYPE svg PUBLIC "-//W3C//DTD SVG 20010904//EN"
 "http://www.w3.org/TR/2001/REC-SVG-20010904/DTD/svg10.dtd">
<svg version="1.0" xmlns="http://www.w3.org/2000/svg"
 width="16.000000pt" height="16.000000pt" viewBox="0 0 16.000000 16.000000"
 preserveAspectRatio="xMidYMid meet">
<metadata>
Created by potrace 1.11, written by Peter Selinger 2001-2013
</metadata>
<g transform="translate(0.000000,16.000000) scale(0.003125,-0.003125)"
fill="#000000" stroke="none">
<path d="M2408 4695 c-2 -1 -43 -6 -93 -9 -49 -4 -99 -9 -110 -11 -11 -3 -38
-7 -60 -10 -369 -56 -726 -193 -1032 -396 -137 -91 -245 -179 -368 -303 -106
-107 -236 -265 -276 -335 -8 -14 -18 -30 -22 -35 -80 -108 -222 -433 -251
-576 -9 -43 -15 -71 -20 -88 -3 -9 -8 -35 -11 -57 -3 -23 -7 -51 -10 -64 -22
-117 -22 -395 1 -536 35 -219 86 -385 182 -595 23 -49 115 -204 124 -208 5 -2
8 -8 8 -13 0 -6 19 -36 42 -67 257 -350 587 -611 1003 -793 154 -67 437 -149
601 -173 22 -4 49 -8 61 -10 21 -5 103 -13 193 -21 54 -5 336 -5 400 -1 64 5
161 16 186 21 12 3 39 7 60 10 178 27 452 109 636 191 168 74 394 208 509 301
296 240 481 464 630 765 21 42 43 79 48 82 14 9 67 141 94 237 90 310 94 713
11 1028 -24 93 -87 265 -106 288 -5 6 -28 49 -50 94 -68 140 -166 289 -277
424 -14 17 -79 84 -146 150 -133 132 -265 236 -420 332 -210 130 -567 276
-754 308 -19 3 -37 8 -41 10 -10 6 -225 41 -315 51 -47 5 -422 13 -427 9z"/>
</g>
</svg>
