<?xml version="1.0" standalone="no"?>
<!DOCTYPE svg PUBLIC "-//W3C//DTD SVG 20010904//EN"
 "http://www.w3.org/TR/2001/REC-SVG-20010904/DTD/svg10.dtd">
<svg version="1.0" xmlns="http://www.w3.org/2000/svg"
 width="16.000000pt" height="16.000000pt" viewBox="0 0 16.000000 16.000000"
 preserveAspectRatio="xMidYMid meet">
<metadata>
Created by potrace 1.11, written by Peter Selinger 2001-2013
</metadata>
<g transform="translate(0.000000,16.000000) scale(0.003125,-0.003125)"
fill="#000000" stroke="none">
<path d="M2350 4689 c-618 -51 -1185 -305 -1600 -719 -311 -311 -511 -688
-586 -1105 -22 -123 -30 -395 -15 -525 53 -469 254 -875 605 -1226 376 -375
860 -611 1443 -701 171 -27 585 -24 768 5 804 126 1464 573 1802 1220 31 59
62 112 69 118 7 5 28 48 47 95 150 364 165 886 37 1269 -47 141 -156 356 -263
516 -476 716 -1380 1128 -2307 1053z m-1605 -1861 c14 -13 30 -41 35 -63 13
-54 12 -351 0 -397 -27 -97 -147 -105 -186 -12 -20 47 -20 381 0 428 27 66
101 87 151 44z"/>
</g>
</svg>
